<svg width="428" height="926" viewBox="0 0 428 926" fill="none" xmlns="http://www.w3.org/2000/svg">
	<defs>
		<linearGradient id="paint0_linear_45_1395" x1="214" y1="435" x2="214" y2="926" gradientUnits="userSpaceOnUse">
		<stop stop-color="#8DD3C8"/>
		<stop offset="1" stop-color="#6EB7AB"/>
		</linearGradient>
		<clipPath id="clip0_45_1395">
		<rect width="428" height="926" fill="white"/>
		</clipPath>
		</defs>
<g clip-path="url(#clip0_45_1395)">
<rect width="428" height="926" fill="#D0EDE9"/>
<path d="M0 465C0 448.431 13.4315 435 30 435H398C414.569 435 428 448.431 428 465V926H0V465Z" fill="url(#paint0_linear_45_1395)"/>
<path d="M30 465.858H398C414.016 465.858 427 478.842 427 494.858V954.858H1V494.858C1 478.842 13.9837 465.858 30 465.858Z" stroke="white" stroke-width="2"/>
<path d="M30 447.858H398C414.016 447.858 427 460.842 427 476.858V936.858H1V476.858C1 460.842 13.9837 447.858 30 447.858Z" stroke="white" stroke-opacity="0.5" stroke-width="2"/>
</g>
</svg>
