<svg width="17" height="21" viewBox="0 0 17 21" fill="none" xmlns="http://www.w3.org/2000/svg">
<path d="M11.6914 5.42188C11.2031 5.42188 10.7474 5.49674 10.3242 5.64648C9.90755 5.79622 9.52669 5.94596 9.18164 6.0957C8.83659 6.23893 8.53711 6.31055 8.2832 6.31055C8.01628 6.31055 7.72005 6.24219 7.39453 6.10547C7.06901 5.96224 6.71745 5.82227 6.33984 5.68555C5.96875 5.54883 5.57161 5.48047 5.14844 5.48047C4.34766 5.48047 3.57617 5.69857 2.83398 6.13477C2.0918 6.57096 1.48307 7.21549 1.00781 8.06836C0.532552 8.92122 0.294922 9.97266 0.294922 11.2227C0.294922 12.0039 0.386068 12.7852 0.568359 13.5664C0.750651 14.3477 0.994792 15.0866 1.30078 15.7832C1.60677 16.4798 1.94531 17.0951 2.31641 17.6289C2.79818 18.2995 3.26693 18.8757 3.72266 19.3574C4.1849 19.8392 4.71875 20.0801 5.32422 20.0801C5.72135 20.0801 6.06641 20.015 6.35938 19.8848C6.65234 19.7546 6.96159 19.6211 7.28711 19.4844C7.61914 19.3542 8.03255 19.2891 8.52734 19.2891C8.90495 19.2891 9.2207 19.3281 9.47461 19.4062C9.72852 19.4844 9.95964 19.5723 10.168 19.6699C10.3828 19.7741 10.6074 19.8652 10.8418 19.9434C11.0762 20.0215 11.3594 20.0605 11.6914 20.0605C12.1276 20.0605 12.5182 19.9434 12.8633 19.709C13.2148 19.4811 13.5371 19.1849 13.8301 18.8203C14.1296 18.4557 14.4193 18.0749 14.6992 17.6777C15.0052 17.2285 15.2526 16.7988 15.4414 16.3887C15.6367 15.972 15.7799 15.6335 15.8711 15.373C15.9622 15.1061 16.0111 14.9596 16.0176 14.9336C15.998 14.9271 15.8548 14.8555 15.5879 14.7188C15.3275 14.5755 15.028 14.3509 14.6895 14.0449C14.3574 13.7389 14.0645 13.3385 13.8105 12.8438C13.5632 12.349 13.4395 11.7435 13.4395 11.0273C13.4395 10.4023 13.5371 9.86523 13.7324 9.41602C13.9342 8.96029 14.1686 8.58594 14.4355 8.29297C14.7025 7.99349 14.9401 7.76562 15.1484 7.60938C15.3633 7.45312 15.487 7.36523 15.5195 7.3457C15.194 6.87695 14.8392 6.51237 14.4551 6.25195C14.071 5.99154 13.6934 5.80273 13.3223 5.68555C12.9512 5.56836 12.6191 5.49674 12.3262 5.4707C12.0397 5.43815 11.8281 5.42188 11.6914 5.42188ZM11.0078 3.83984C11.3073 3.48177 11.5514 3.06836 11.7402 2.59961C11.929 2.12435 12.0234 1.63607 12.0234 1.13477C12.0234 0.991536 12.0137 0.864583 11.9941 0.753906C11.5059 0.773438 10.9948 0.919922 10.4609 1.19336C9.93359 1.4668 9.4974 1.80859 9.15234 2.21875C8.8724 2.53125 8.625 2.92188 8.41016 3.39062C8.19531 3.85938 8.08789 4.34115 8.08789 4.83594C8.08789 4.91406 8.09115 4.98568 8.09766 5.05078C8.11068 5.11589 8.12044 5.16146 8.12695 5.1875C8.21159 5.20703 8.29948 5.2168 8.39062 5.2168C8.82682 5.2168 9.28906 5.08659 9.77734 4.82617C10.2721 4.56576 10.6823 4.23698 11.0078 3.83984Z" fill="white"/>
</svg>
