<svg width="53" height="53" viewBox="0 0 53 53" fill="none" xmlns="http://www.w3.org/2000/svg">
<circle cx="26.2661" cy="26.8081" r="26" fill="white"/>
<g clip-path="url(#clip0_123_1346)">
<path d="M17.6369 30.5421L16.5575 34.5693L12.612 34.6524C11.4189 32.4305 10.785 29.9513 10.7651 27.4294C10.7452 24.9075 11.34 22.4187 12.4979 20.1782L16.0094 20.8222L17.5495 24.3111C16.8578 26.3348 16.8887 28.5357 17.6369 30.5393V30.5421Z" fill="#FBBB00"/>
<path d="M41.4954 24.4126C42.0209 27.1763 41.7843 30.0309 40.8109 32.6703C39.8376 35.3098 38.1643 37.6346 35.9704 39.3955L31.5473 39.17L30.9216 35.2626C32.7481 34.192 34.1514 32.5265 34.8967 30.545H26.6084V24.4126H41.4969H41.4954Z" fill="#518EF8"/>
<path d="M35.969 39.3953C34.1956 40.8195 32.1304 41.8361 29.9201 42.3727C27.7098 42.9093 25.4085 42.9529 23.1794 42.5003C20.9504 42.0478 18.8483 41.1102 17.0222 39.7541C15.1961 38.3981 13.6909 36.6568 12.6133 34.6537L17.6367 30.542C18.1083 31.7991 18.8488 32.9381 19.8064 33.8793C20.7641 34.8204 21.9158 35.5409 23.181 35.9905C24.4462 36.4401 25.7943 36.6079 27.1311 36.4821C28.4679 36.3564 29.7611 35.9401 30.9202 35.2625L35.969 39.3953Z" fill="#28B446"/>
<path d="M36.1594 15.3762L31.1388 19.4879C29.9625 18.7551 28.6361 18.2971 27.2583 18.1478C25.8806 17.9985 24.4869 18.1618 23.1809 18.6256C21.875 19.0894 20.6905 19.8417 19.7155 20.8266C18.7405 21.8115 18.0001 23.0035 17.5495 24.314L12.5007 20.1797C13.5656 18.1234 15.0776 16.3318 16.9258 14.9365C18.774 13.5413 20.9113 12.5778 23.1807 12.1171C25.4501 11.6563 27.7939 11.7099 30.0398 12.2739C32.2858 12.8378 34.3769 13.8979 36.1594 15.3762Z" fill="#F14336"/>
</g>
<defs>
<clipPath id="clip0_123_1346">
<rect width="31" height="31" fill="white" transform="translate(10.7661 11.8081)"/>
</clipPath>
</defs>
</svg>
