<svg width="27" height="23" viewBox="0 0 27 23" fill="none" xmlns="http://www.w3.org/2000/svg">
<path d="M12.68 5.0023H25.8167L21.8013 15.5425H11.4259L4.55892 1.01422H0.85199" stroke="#0077BF" stroke-width="1.5" stroke-linecap="round" stroke-linejoin="round"/>
<path d="M14.7504 20.446C14.7504 21.5227 13.885 22.3892 12.8253 22.3892C11.7656 22.3892 10.9001 21.5227 10.9001 20.446C10.9001 19.3692 11.7656 18.5027 12.8253 18.5027C13.885 18.5027 14.7504 19.3692 14.7504 20.446Z" fill="white" stroke="#0077BF"/>
<path d="M22.6579 20.446C22.6579 21.5227 21.7925 22.3892 20.7327 22.3892C19.673 22.3892 18.8076 21.5227 18.8076 20.446C18.8076 19.3692 19.673 18.5027 20.7327 18.5027C21.7925 18.5027 22.6579 19.3692 22.6579 20.446Z" fill="white" stroke="#0077BF"/>
</svg>
