<svg width="23" height="25" viewBox="0 0 23 25" fill="none" xmlns="http://www.w3.org/2000/svg">
<g clip-path="url(#clip0_4_11)">
<path d="M8.09108 21.2466V20.6493H3.44229C3.07556 20.6488 2.71253 20.5782 2.37393 20.4415C2.03533 20.3048 1.72778 20.1047 1.46885 19.8526C1.20992 19.6005 1.00467 19.3014 0.864828 18.9723C0.724986 18.6432 0.653288 18.2906 0.653827 17.9347V17.4767C0.651802 16.9044 0.814901 16.343 1.12466 15.856C1.43441 15.369 1.87845 14.9759 2.40648 14.7213C2.64404 14.6071 2.84742 14.4357 2.99718 14.2234C3.14694 14.0111 3.23805 13.765 3.26179 13.5088L3.81558 7.59562C3.99018 5.73444 4.87528 4.00385 6.29708 2.74369C7.71889 1.48353 9.57467 0.784851 11.5 0.784851C13.4253 0.784851 15.2811 1.48353 16.7029 2.74369C18.1247 4.00385 19.0098 5.73444 19.1844 7.59562L19.7382 13.5088C19.761 13.7643 19.8512 14.0098 20.0001 14.2216C20.149 14.4335 20.3516 14.6045 20.5884 14.7183C21.1177 14.9727 21.5631 15.366 21.8739 15.8535C22.1848 16.3411 22.3487 16.9034 22.3472 17.4767V17.9347C22.3469 18.6527 22.0531 19.3413 21.5304 19.8494C21.0076 20.3574 20.2985 20.6433 19.5587 20.6444H14.9089V21.2416C14.8871 22.1052 14.5184 22.9262 13.8814 23.5295C13.2445 24.1328 12.3899 24.4704 11.5 24.4704C10.6101 24.4704 9.75547 24.1328 9.11855 23.5295C8.48164 22.9262 8.11291 22.1052 8.09108 21.2416V21.2466ZM9.9504 21.2466C9.9504 21.4442 9.99048 21.6398 10.0684 21.8222C10.1462 22.0047 10.2604 22.1706 10.4043 22.3102C10.5482 22.4499 10.719 22.5607 10.907 22.6363C11.095 22.7119 11.2965 22.7508 11.5 22.7508C11.7035 22.7508 11.905 22.7119 12.093 22.6363C12.281 22.5607 12.4518 22.4499 12.5957 22.3102C12.7396 22.1706 12.8538 22.0047 12.9316 21.8222C13.0095 21.6398 13.0496 21.4442 13.0496 21.2466V20.6493H9.95142L9.9504 21.2466ZM5.66977 7.75789L5.11598 13.67C5.06483 14.2327 4.86542 14.773 4.53692 15.2392C4.20842 15.7054 3.76189 16.0817 3.24025 16.3319C3.02068 16.4371 2.83592 16.5999 2.70702 16.802C2.57811 17.004 2.51022 17.2371 2.51109 17.4748V17.9327C2.51096 18.0512 2.53488 18.1687 2.5815 18.2783C2.62812 18.3879 2.69653 18.4875 2.7828 18.5714C2.86908 18.6553 2.97155 18.722 3.08435 18.7675C3.19715 18.813 3.31808 18.8364 3.44023 18.8366H19.5587C19.8054 18.836 20.0419 18.7406 20.2162 18.5712C20.3906 18.4018 20.4886 18.1722 20.4889 17.9327V17.4748C20.4899 17.2376 20.4223 17.0049 20.294 16.8031C20.1657 16.6013 19.9817 16.4384 19.7628 16.3329C19.2415 16.082 18.7952 15.7054 18.4666 15.2391C18.138 14.7729 17.9381 14.2327 17.8861 13.67L17.3323 7.75789C17.1934 6.35007 16.5191 5.04301 15.4409 4.09183C14.3627 3.14065 12.958 2.61363 11.501 2.61363C10.0441 2.61363 8.63938 3.14065 7.56117 4.09183C6.48297 5.04301 5.80863 6.35007 5.66977 7.75789Z" fill="#0077BF" stroke="white" stroke-width="0.3"/>
</g>
<defs>
<clipPath id="clip0_4_11">
<rect width="22" height="24" fill="white" transform="translate(0.5 0.639221)"/>
</clipPath>
</defs>
</svg>
