<svg width="25" height="18" viewBox="0 0 25 18" fill="none" xmlns="http://www.w3.org/2000/svg">
<path fill-rule="evenodd" clip-rule="evenodd" d="M9.9728 0.599976C9.66897 0.60009 9.3765 0.71545 9.1544 0.922776L0.5 8.99998L9.1544 17.0772C9.3765 17.2845 9.66897 17.3999 9.9728 17.4H23.3C23.6183 17.4 23.9235 17.2735 24.1485 17.0485C24.3736 16.8235 24.5 16.5182 24.5 16.2V1.79998C24.5 1.48172 24.3736 1.17649 24.1485 0.951448C23.9235 0.726404 23.6183 0.599976 23.3 0.599976H9.9728ZM14.7071 4.89287C14.3166 4.50234 13.6834 4.50234 13.2929 4.89287C12.9024 5.28339 12.9024 5.91656 13.2929 6.30708L15.5858 8.59998L13.2929 10.8929C12.9024 11.2834 12.9024 11.9166 13.2929 12.3071C13.6834 12.6976 14.3166 12.6976 14.7071 12.3071L17 10.0142L19.2929 12.3071C19.6834 12.6976 20.3166 12.6976 20.7071 12.3071C21.0976 11.9166 21.0976 11.2834 20.7071 10.8929L18.4142 8.59998L20.7071 6.30708C21.0976 5.91656 21.0976 5.28339 20.7071 4.89287C20.3166 4.50234 19.6834 4.50234 19.2929 4.89287L17 7.18576L14.7071 4.89287Z" fill="black"/>
</svg>
