<svg width="24" height="24" viewBox="0 0 24 24" fill="none" xmlns="http://www.w3.org/2000/svg">
<path fill-rule="evenodd" clip-rule="evenodd" d="M12.0023 9.88989C10.8084 9.88989 9.84029 10.8574 9.84029 12.0519C9.84029 13.2456 10.8086 14.2139 12.0023 14.2139C13.196 14.2139 14.1643 13.2456 14.1643 12.0519C14.1643 10.8574 13.1962 9.88989 12.0023 9.88989ZM7.84029 12.0519C7.84029 9.7524 9.70422 7.88989 12.0023 7.88989C14.3004 7.88989 16.1643 9.7524 16.1643 12.0519C16.1643 14.3502 14.3006 16.2139 12.0023 16.2139C9.70401 16.2139 7.84029 14.3502 7.84029 12.0519Z" fill="#B3C2D8"/>
<path fill-rule="evenodd" clip-rule="evenodd" d="M4.81442 6.40735C6.64887 4.85641 9.18561 3.75 12.0023 3.75C14.8183 3.75 17.355 4.85553 19.1897 6.40612C20.9983 7.93468 22.2543 10.0152 22.2543 12.052C22.2543 14.0888 20.9983 16.1693 19.1897 17.6979C17.355 19.2485 14.8183 20.354 12.0023 20.354C9.18561 20.354 6.64887 19.2476 4.81442 17.6967C3.00612 16.1678 1.7503 14.0873 1.7503 12.052C1.7503 10.0167 3.00612 7.93618 4.81442 6.40735ZM6.10568 7.93465C4.56547 9.23682 3.7503 10.8073 3.7503 12.052C3.7503 13.2967 4.56547 14.8672 6.10568 16.1694C7.61973 17.4494 9.70898 18.354 12.0023 18.354C14.2953 18.354 16.3846 17.45 17.8987 16.1704C19.4388 14.8687 20.2543 13.2982 20.2543 12.052C20.2543 10.8058 19.4388 9.23532 17.8987 7.93363C16.3846 6.65397 14.2953 5.75 12.0023 5.75C9.70898 5.75 7.61973 6.65459 6.10568 7.93465Z" fill="#B3C2D8"/>
</svg>
