<svg width="24" height="24" viewBox="0 0 24 24" fill="none" xmlns="http://www.w3.org/2000/svg">
<path fill-rule="evenodd" clip-rule="evenodd" d="M6.10436 8.02351C4.56478 9.32508 3.75 10.8951 3.75 12.1398C3.75 13.614 4.90383 15.5419 6.96775 16.8932C7.42982 17.1957 7.55916 17.8155 7.25664 18.2776C6.95412 18.7397 6.33431 18.869 5.87225 18.5665C3.47617 16.9978 1.75 14.5257 1.75 12.1398C1.75 10.1046 3.00522 8.02461 4.81314 6.49618C6.64717 4.94567 9.18343 3.83984 12 3.83984C14.304 3.83984 16.4348 4.57784 18.1447 5.71779C18.6042 6.02415 18.7284 6.64502 18.4221 7.10454C18.1157 7.56407 17.4948 7.68825 17.0353 7.38189C15.6252 6.44184 13.876 5.83984 12 5.83984C9.70657 5.83984 7.61783 6.74402 6.10436 8.02351Z" fill="#B3C2D8"/>
<path fill-rule="evenodd" clip-rule="evenodd" d="M19.2305 7.82514C19.6642 7.48318 20.293 7.55754 20.635 7.99122C21.6185 9.2386 22.2597 10.7006 22.2597 12.1404C22.2597 14.1765 21.0011 16.2566 19.191 17.7845C17.3546 19.3347 14.8161 20.4404 11.9997 20.4404C10.9951 20.4404 10.0164 20.297 9.10295 20.0442C8.57068 19.8968 8.25861 19.3459 8.40593 18.8136C8.55325 18.2814 9.10417 17.9693 9.63645 18.1166C10.385 18.3238 11.1843 18.4404 11.9997 18.4404C14.2933 18.4404 16.3847 17.5361 17.9009 16.2563C19.4433 14.9542 20.2597 13.3843 20.2597 12.1404C20.2597 11.2802 19.8629 10.2422 19.0644 9.22956C18.7225 8.79588 18.7968 8.1671 19.2305 7.82514Z" fill="#B3C2D8"/>
<path fill-rule="evenodd" clip-rule="evenodd" d="M13.5276 10.6043C13.1216 10.1983 12.5708 9.97081 11.9971 9.97217L11.9964 9.97218C10.8029 9.97423 9.83796 10.9435 9.84068 12.1359L9.84067 12.1417C9.83865 12.7108 10.065 13.2564 10.4692 13.6565C10.8617 14.045 10.8649 14.6782 10.4764 15.0707C10.0878 15.4632 9.45468 15.4664 9.06219 15.0779C8.27711 14.3007 7.83753 13.2415 7.84068 12.1375C7.83702 9.84153 9.69517 7.97649 11.9923 7.97218M11.993 7.97218C13.099 7.96973 14.16 8.40827 14.9418 9.19008C15.3323 9.5806 15.3323 10.2138 14.9418 10.6043C14.5513 10.9948 13.9181 10.9948 13.5276 10.6043" fill="#B3C2D8"/>
<path fill-rule="evenodd" clip-rule="evenodd" d="M15.2877 11.7152C15.8312 11.8136 16.1919 12.3339 16.0935 12.8774C15.7853 14.5791 14.4541 15.9127 12.7529 16.2247C12.2097 16.3244 11.6886 15.9648 11.5889 15.4216C11.4893 14.8784 11.8489 14.3572 12.3921 14.2576C13.2749 14.0956 13.9657 13.4032 14.1255 12.5209C14.2239 11.9775 14.7443 11.6167 15.2877 11.7152Z" fill="#B3C2D8"/>
<path fill-rule="evenodd" clip-rule="evenodd" d="M20.5988 3.54289C20.9893 3.93342 20.9893 4.56658 20.5988 4.95711L4.82481 20.7311C4.43428 21.1216 3.80112 21.1216 3.41059 20.7311C3.02007 20.3406 3.02007 19.7074 3.41059 19.3169L19.1846 3.54289C19.5751 3.15237 20.2083 3.15237 20.5988 3.54289Z" fill="#B3C2D8"/>
</svg>
