<svg width="78" height="19" viewBox="0 0 78 19" fill="none" xmlns="http://www.w3.org/2000/svg">
<path d="M68.96 0H0V18.147H68.96C74.202 18.147 77.204 14.247 77.204 9.113C77.2 3.951 74.2 0 68.96 0ZM7.152 14.517H4.228V3.629H7.152C9.852 3.629 11.218 6.274 11.218 9.115C11.217 11.927 9.853 14.517 7.152 14.517ZM23.435 14.517H16.228V3.629H23.292V5.936H18.867V8.023H22.754V10.283H18.867V12.211H23.434L23.435 14.517ZM32.396 14.517H30.073L26.754 3.629H29.5L31.238 10.266L32.945 3.629H35.73L32.396 14.517ZM46.664 14.517H39.457V3.629H46.521V5.936H42.1V8.023H45.987V10.283H42.1V12.211H46.667L46.664 14.517ZM55.925 14.517L53.585 10.882H53.348V14.517H50.709V3.629H55.209C55.6994 3.59535 56.1914 3.66556 56.6528 3.83503C57.1142 4.00451 57.5347 4.26944 57.8867 4.61251C58.2388 4.95559 58.5145 5.36908 58.6958 5.82598C58.8771 6.28287 58.96 6.77289 58.939 7.264C58.9762 8.05819 58.7365 8.84066 58.2608 9.47774C57.7851 10.1148 57.103 10.567 56.331 10.757L58.986 14.518L55.925 14.517ZM66.019 14.517C63.647 14.517 62.107 13.223 62.107 11.217H64.707C64.737 11.787 65.123 12.249 66.016 12.249C66.678 12.249 67.325 11.956 67.325 11.294C67.325 11.125 67.325 10.771 66.263 10.416L65.015 10C62.644 9.353 62.243 7.844 62.243 6.874C62.243 4.933 63.829 3.624 65.955 3.624C68.05 3.624 69.605 4.841 69.605 6.935H67.034C67.034 6.365 66.711 5.95 65.925 5.95C65.232 5.95 64.801 6.289 64.801 6.797C64.801 6.997 64.863 7.382 65.786 7.659L67 8.05C69.787 8.912 69.941 10.529 69.941 11.284C69.945 13.625 67.8 14.518 66.018 14.518L66.019 14.517Z" fill="#F66427"/>
</svg>
