<svg width="37" height="37" viewBox="0 0 37 37" fill="none" xmlns="http://www.w3.org/2000/svg">
<path fill-rule="evenodd" clip-rule="evenodd" d="M4.93899 5.55274C5.1072 5.41024 5.3296 5.34897 5.54707 5.38521L14.5471 6.88521C14.9087 6.94548 15.1738 7.25838 15.1738 7.62501V30.125C15.1738 30.3455 15.0768 30.5548 14.9085 30.6973C14.7403 30.8398 14.5179 30.901 14.3005 30.8648L5.30047 29.3648C4.93883 29.3045 4.67377 28.9916 4.67377 28.625V6.12501C4.67377 5.90454 4.77077 5.69524 4.93899 5.55274ZM6.17377 7.01035V27.9897L13.6738 29.2397V8.26035L6.17377 7.01035Z" fill="#999999"/>
<path fill-rule="evenodd" clip-rule="evenodd" d="M23.9085 5.55274C23.7403 5.41024 23.5179 5.34897 23.3005 5.38521L14.3005 6.88521C13.9388 6.94548 13.6738 7.25838 13.6738 7.62501V30.125C13.6738 30.3455 13.7708 30.5548 13.939 30.6973C14.1072 30.8398 14.3296 30.901 14.5471 30.8648L23.5471 29.3648C23.9087 29.3045 24.1738 28.9916 24.1738 28.625V6.12501C24.1738 5.90454 24.0768 5.69524 23.9085 5.55274ZM22.6738 7.01035V27.9897L15.1738 29.2397V8.26035L22.6738 7.01035Z" fill="#999999"/>
<path fill-rule="evenodd" clip-rule="evenodd" d="M22.939 5.55274C23.1072 5.41024 23.3296 5.34897 23.5471 5.38521L32.5471 6.88521C32.9087 6.94548 33.1738 7.25838 33.1738 7.62501V30.125C33.1738 30.3455 33.0768 30.5548 32.9085 30.6973C32.7403 30.8398 32.5179 30.901 32.3005 30.8648L23.3005 29.3648C22.9388 29.3045 22.6738 28.9916 22.6738 28.625V6.12501C22.6738 5.90454 22.7708 5.69524 22.939 5.55274ZM24.1738 7.01035V27.9897L31.6738 29.2397V8.26035L24.1738 7.01035Z" fill="#999999"/>
</svg>
