<svg width="37" height="37" viewBox="0 0 37 37" fill="none" xmlns="http://www.w3.org/2000/svg">
<path fill-rule="evenodd" clip-rule="evenodd" d="M19.6719 6.35845C18.9161 5.8546 17.9315 5.8546 17.1758 6.35845L6.67575 13.3584C6.04981 13.7757 5.67383 14.4783 5.67383 15.2306V28.625C5.67383 29.8676 6.68119 30.875 7.92383 30.875H13.1738V24.125C13.1738 22.0539 14.8528 20.375 16.9238 20.375H19.9238C21.9949 20.375 23.6738 22.0539 23.6738 24.125V30.875H28.9238C30.1665 30.875 31.1738 29.8676 31.1738 28.625V15.2306C31.1738 14.4783 30.7978 13.7757 30.1719 13.3584L19.6719 6.35845ZM16.3437 5.11037C17.6033 4.27062 19.2443 4.27062 20.504 5.11037L31.004 12.1104C32.0472 12.8059 32.6738 13.9767 32.6738 15.2306V28.625C32.6738 30.6961 30.9949 32.375 28.9238 32.375H22.9238C22.5096 32.375 22.1738 32.0392 22.1738 31.625V24.125C22.1738 22.8824 21.1665 21.875 19.9238 21.875H16.9238C15.6812 21.875 14.6738 22.8824 14.6738 24.125V31.625C14.6738 32.0392 14.338 32.375 13.9238 32.375H7.92383C5.85276 32.375 4.17383 30.6961 4.17383 28.625V15.2306C4.17383 13.9767 4.80046 12.8059 5.8437 12.1104L16.3437 5.11037Z" fill="#999999"/>
</svg>
