<svg width="37" height="37" viewBox="0 0 37 37" fill="none" xmlns="http://www.w3.org/2000/svg">
<path d="M11.6807 19.5148V23.9592H6.47906C5.90361 23.9592 5.35173 23.7251 4.94483 23.3083C4.53792 22.8916 4.30933 22.3264 4.30933 21.737C4.30933 21.1476 4.53792 20.5824 4.94483 20.1656C5.35173 19.7489 5.90361 19.5148 6.47906 19.5148H11.6807Z" stroke="#999999" stroke-width="1.5"/>
<path d="M21.1383 4.5755C19.8956 4.57536 18.6651 4.8259 17.5169 5.31283C16.3688 5.79977 15.3255 6.51355 14.4467 7.41342C13.568 8.31329 12.8708 9.38164 12.3952 10.5574C11.9195 11.7333 11.6747 12.9935 11.6746 14.2662C11.6746 14.401 11.6777 14.5358 11.6839 14.669C11.6813 14.7006 11.6802 14.7324 11.6807 14.7641V28.641C11.6807 29.2304 11.9093 29.7956 12.3162 30.2124C12.7231 30.6291 13.275 30.8633 13.8505 30.8633C14.4259 30.8633 14.9778 30.6291 15.3847 30.2124C15.7916 29.7956 16.0202 29.2304 16.0202 28.641V23.9592H21.1383C21.1893 23.9592 21.2405 23.9592 21.2916 23.9576C21.3055 23.9579 21.3195 23.9574 21.3334 23.9561C23.825 23.9026 26.1954 22.8446 27.9299 21.0118C29.6643 19.179 30.6228 16.7193 30.5972 14.167C30.5715 11.6147 29.5637 9.17586 27.7927 7.38003C26.0218 5.58419 23.6305 4.57642 21.1384 4.57556L21.1383 4.5755ZM21.1383 19.5148C20.1248 19.5148 19.1341 19.207 18.2914 18.6303C17.4487 18.0537 16.7919 17.234 16.4041 16.2751C16.0162 15.3161 15.9147 14.2609 16.1124 13.2428C16.3101 12.2248 16.7981 11.2896 17.5147 10.5556C18.2313 9.82162 19.1444 9.32175 20.1384 9.11921C21.1324 8.91667 22.1627 9.02056 23.099 9.41773C24.0354 9.81491 24.8357 10.4875 25.3988 11.3506C25.9619 12.2136 26.2625 13.2283 26.2626 14.2662C26.2626 15.6582 25.7227 16.9932 24.7617 17.9775C23.8008 18.9618 22.4974 19.5148 21.1383 19.5148V19.5148Z" stroke="#999999" stroke-width="1.5"/>
</svg>
