<svg width="37" height="37" viewBox="0 0 37 37" fill="none" xmlns="http://www.w3.org/2000/svg">
<path d="M34 13.8755V13.8468C34 13.8181 34 13.8037 33.9858 13.7894V13.7463C33.9858 13.7319 33.9716 13.7032 33.9716 13.6888L31.9245 6.46489C31.8073 6.04499 31.5581 5.67499 31.2144 5.41074C30.8708 5.14649 30.4514 5.00232 30.0196 5H8.9804C8.54856 5.00232 8.12918 5.14649 7.78555 5.41074C7.44193 5.67499 7.19271 6.04499 7.0755 6.46489L5.02844 13.6745C5.02844 13.6888 5.01422 13.7176 5.01422 13.7319V13.775C5.00001 13.7894 5.00001 13.8037 5.00001 13.8324V16.2021C4.99847 17.074 5.20426 17.9335 5.60008 18.7083C5.9959 19.4831 6.57016 20.1504 7.27452 20.6543V29.9894C7.27452 30.5226 7.4842 31.034 7.85743 31.4111C8.23067 31.7882 8.73688 32 9.26471 32H29.7353C30.2631 32 30.7693 31.7882 31.1426 31.4111C31.5158 31.034 31.7255 30.5226 31.7255 29.9894V20.6543C32.4298 20.1504 33.0041 19.4831 33.3999 18.7083C33.7957 17.9335 34.0015 17.074 34 16.2021V13.8755ZM8.7103 6.93883C8.72583 6.87803 8.76065 6.82405 8.80943 6.78515C8.85821 6.74624 8.91826 6.72455 8.9804 6.7234H30.0196C30.0817 6.72455 30.1418 6.74624 30.1906 6.78515C30.2394 6.82405 30.2742 6.87803 30.2897 6.93883L32.0098 13.0426H6.9902L8.7103 6.93883ZM15.8039 14.766H23.1961V16.2021C23.1961 17.1925 22.8067 18.1422 22.1135 18.8425C21.4204 19.5428 20.4803 19.9362 19.5 19.9362C18.5197 19.9362 17.5796 19.5428 16.8865 18.8425C16.1933 18.1422 15.8039 17.1925 15.8039 16.2021V14.766ZM6.70589 14.766H14.098V16.2021C14.0943 17.1913 13.7037 18.1389 13.0113 18.8383C12.319 19.5378 11.3811 19.9324 10.402 19.9362C9.79803 19.9351 9.20322 19.7873 8.66765 19.5053C8.60077 19.4443 8.52377 19.3957 8.4402 19.3617C7.91012 19.0263 7.47295 18.5605 7.16963 18.0079C6.8663 17.4553 6.70674 16.834 6.70589 16.2021V14.766ZM30.0196 29.9894C30.0196 30.0655 29.9896 30.1386 29.9363 30.1925C29.883 30.2463 29.8107 30.2766 29.7353 30.2766H9.26471C9.18931 30.2766 9.11699 30.2463 9.06367 30.1925C9.01035 30.1386 8.9804 30.0655 8.9804 29.9894V21.4729C9.44482 21.5941 9.9223 21.6568 10.402 21.6596C11.3078 21.6584 12.1988 21.4277 12.9935 20.9886C13.7882 20.5495 14.4612 19.9161 14.951 19.1463C15.4397 19.9172 16.1124 20.5515 16.9074 20.9908C17.7023 21.4302 18.5939 21.6605 19.5 21.6605C20.4061 21.6605 21.2977 21.4302 22.0926 20.9908C22.8876 20.5515 23.5603 19.9172 24.049 19.1463C24.5388 19.9161 25.2118 20.5495 26.0065 20.9886C26.8012 21.4277 27.6922 21.6584 28.598 21.6596C29.0777 21.6568 29.5552 21.5941 30.0196 21.4729V29.9894ZM30.5598 19.3617C30.4762 19.3957 30.3992 19.4443 30.3323 19.5053C29.7968 19.7873 29.202 19.9351 28.598 19.9362C27.6189 19.9324 26.681 19.5378 25.9886 18.8383C25.2963 18.1389 24.9057 17.1913 24.902 16.2021V14.766H32.2941V16.2021C32.2933 16.834 32.1337 17.4553 31.8304 18.0079C31.527 18.5605 31.0899 19.0263 30.5598 19.3617Z" fill="#999999"/>
</svg>
