<svg width="37" height="37" viewBox="0 0 37 37" fill="none" xmlns="http://www.w3.org/2000/svg">
<path fill-rule="evenodd" clip-rule="evenodd" d="M30.1805 8.36127C27.2281 5.4975 22.5172 5.36141 19.3987 7.95865C19.2609 8.0734 19.0915 8.12805 18.9238 8.12385C18.756 8.12805 18.5866 8.0734 18.4488 7.95865C15.3303 5.36141 10.6195 5.4975 7.66708 8.36127C4.72484 11.2152 4.58847 15.7498 7.25226 18.7591C7.28262 18.7934 7.3091 18.8298 7.33172 18.8679L18.9238 30.112L30.5158 18.8679C30.5384 18.8298 30.5649 18.7934 30.5953 18.7591C33.2591 15.7498 33.1227 11.2152 30.1805 8.36127ZM31.7912 19.5604C34.8278 15.9819 34.6207 10.678 31.1751 7.33585C27.8288 4.09001 22.5877 3.81864 18.9238 6.51673C15.2598 3.81864 10.0187 4.09001 6.67243 7.33585C3.22689 10.678 3.0197 15.9819 6.05634 19.5603C6.0924 19.6351 6.14155 19.7036 6.20227 19.7625L18.4264 31.6198C18.7035 31.8886 19.144 31.8886 19.4211 31.6198L31.6453 19.7625C31.706 19.7036 31.7551 19.6351 31.7912 19.5604Z" fill="#999999" stroke="#999999" stroke-width="0.2" stroke-linejoin="round"/>
<path fill-rule="evenodd" clip-rule="evenodd" d="M28.2095 13.9643C28.2095 11.9918 26.6105 10.3928 24.6381 10.3928V8.96425C27.3995 8.96425 29.6381 11.2028 29.6381 13.9643H28.2095Z" fill="#999999" stroke="#999999" stroke-width="0.2" stroke-linejoin="round"/>
</svg>
